Coordinates
version=1
nRows=21
nColumns=12
inDegrees=yes

Units are S.I. units (second, meters, Newtons, ...)
Angles are in degrees

endheader
time	SC_y	SC_z	SC_x	AC_y	AC_z	AC_x	GH_y	GH_z	GH_yy	EL_x	PS_y
       0.0              -33.22          8.116          24.09          34.63          3.293         -8.381         -18.04          79.18         -161.0          22.86          102.3
    0.0248              -33.22          8.119          24.09          34.63          3.291         -8.382         -18.05          79.18         -161.0          22.86          102.3
    0.0496              -33.22          8.123          24.09          34.63          3.289         -8.382         -18.05          79.18         -161.0          22.86          102.3
   0.07441              -33.22          8.126          24.09          34.63          3.287         -8.383         -18.06          79.18         -160.9          22.86          102.3
   0.09921              -33.22           8.13          24.09          34.64          3.285         -8.383         -18.06          79.18         -160.9          22.87          102.3
     0.124              -33.22          8.135           24.1          34.64          3.283         -8.384         -18.07          79.18         -160.9          22.87          102.3
    0.1488              -33.22          8.139           24.1          34.64          3.281         -8.384         -18.08          79.19         -160.8          22.87          102.3
    0.1736              -33.22          8.144           24.1          34.64          3.279         -8.385         -18.08          79.19         -160.8          22.88          102.3
    0.1984              -33.22          8.149           24.1          34.65          3.276         -8.385         -18.09          79.19         -160.7          22.88          102.2
    0.2232              -33.22          8.155           24.1          34.65          3.274         -8.386          -18.1          79.19         -160.7          22.89          102.2
     0.248              -33.22          8.161           24.1          34.65          3.271         -8.387         -18.11          79.19         -160.6          22.89          102.2
    0.2728              -33.22          8.167           24.1          34.65          3.268         -8.387         -18.12           79.2         -160.5           22.9          102.2
    0.2976              -33.22          8.174           24.1          34.66          3.264         -8.388         -18.13           79.2         -160.5           22.9          102.2
    0.3224              -33.22          8.182           24.1          34.66          3.261         -8.389         -18.14           79.2         -160.4          22.91          102.2
    0.3472              -33.22           8.19          24.11          34.67          3.257          -8.39         -18.15          79.21         -160.3          22.91          102.2
     0.372              -33.22          8.199          24.11          34.67          3.252         -8.391         -18.16          79.21         -160.2          22.92          102.2
    0.3968              -33.22          8.208          24.11          34.68          3.248         -8.392         -18.18          79.22         -160.2          22.93          102.2
    0.4216              -33.22          8.219          24.11          34.68          3.243         -8.393         -18.19          79.22         -160.1          22.93          102.2
    0.4464              -33.22           8.23          24.11          34.69          3.237         -8.395         -18.21          79.22         -159.9          22.94          102.2
    0.4712              -33.21          8.243          24.12          34.69          3.231         -8.396         -18.23          79.23         -159.8          22.95          102.2
     0.496              -33.21          8.256          24.12           34.7          3.224         -8.397         -18.25          79.24         -159.7          22.96          102.2
